<svg version="1.1" xmlns="http://www.w3.org/2000/svg" style="display: block;" viewBox="0 0 2048 1152" width="1600" height="900" preserveAspectRatio="none">
<defs>
	<linearGradient id="Gradient1" gradientUnits="userSpaceOnUse" x1="919.357" y1="234.062" x2="724.293" y2="222.221">
		<stop class="stop0" offset="0" stop-opacity="1" stop-color="rgb(36,131,147)"/>
		<stop class="stop1" offset="1" stop-opacity="1" stop-color="rgb(22,111,194)"/>
	</linearGradient>
	<linearGradient id="Gradient2" gradientUnits="userSpaceOnUse" x1="981.337" y1="289.519" x2="722.356" y2="284.075">
		<stop class="stop0" offset="0" stop-opacity="1" stop-color="rgb(41,136,132)"/>
		<stop class="stop1" offset="1" stop-opacity="1" stop-color="rgb(22,111,195)"/>
	</linearGradient>
	<linearGradient id="Gradient3" gradientUnits="userSpaceOnUse" x1="1256.4" y1="684.191" x2="831.054" y2="462.351">
		<stop class="stop0" offset="0" stop-opacity="1" stop-color="rgb(57,161,61)"/>
		<stop class="stop1" offset="1" stop-opacity="1" stop-color="rgb(24,113,184)"/>
	</linearGradient>
	<linearGradient id="Gradient4" gradientUnits="userSpaceOnUse" x1="1243.34" y1="139.838" x2="1000.75" y2="315.653">
		<stop class="stop0" offset="0" stop-opacity="1" stop-color="rgb(57,159,57)"/>
		<stop class="stop1" offset="1" stop-opacity="1" stop-color="rgb(36,131,147)"/>
	</linearGradient>
	<linearGradient id="Gradient5" gradientUnits="userSpaceOnUse" x1="1280.61" y1="218.136" x2="1025.55" y2="359.547">
		<stop class="stop0" offset="0" stop-opacity="1" stop-color="rgb(58,160,55)"/>
		<stop class="stop1" offset="1" stop-opacity="1" stop-color="rgb(39,137,130)"/>
	</linearGradient>
	<linearGradient id="Gradient6" gradientUnits="userSpaceOnUse" x1="1273" y1="123.912" x2="1141.37" y2="205.382">
		<stop class="stop0" offset="0" stop-opacity="1" stop-color="rgb(57,158,60)"/>
		<stop class="stop1" offset="1" stop-opacity="1" stop-color="rgb(44,146,103)"/>
	</linearGradient>
	<linearGradient id="Gradient7" gradientUnits="userSpaceOnUse" x1="1256.17" y1="608.673" x2="1044.79" y2="460.803">
		<stop class="stop0" offset="0" stop-opacity="1" stop-color="rgb(56,162,59)"/>
		<stop class="stop1" offset="1" stop-opacity="1" stop-color="rgb(40,131,130)"/>
	</linearGradient>
	<linearGradient id="Gradient8" gradientUnits="userSpaceOnUse" x1="1249.56" y1="574.404" x2="950.813" y2="369.422">
		<stop class="stop0" offset="0" stop-opacity="1" stop-color="rgb(57,165,58)"/>
		<stop class="stop1" offset="1" stop-opacity="1" stop-color="rgb(35,122,153)"/>
	</linearGradient>
	<linearGradient id="Gradient9" gradientUnits="userSpaceOnUse" x1="1144.16" y1="416.809" x2="716.839" y2="411.842">
		<stop class="stop0" offset="0" stop-opacity="1" stop-color="rgb(50,150,91)"/>
		<stop class="stop1" offset="1" stop-opacity="1" stop-color="rgb(23,111,196)"/>
	</linearGradient>
	<linearGradient id="Gradient10" gradientUnits="userSpaceOnUse" x1="1295.07" y1="264.105" x2="847.262" y2="441.137">
		<stop class="stop0" offset="0" stop-opacity="1" stop-color="rgb(60,161,52)"/>
		<stop class="stop1" offset="1" stop-opacity="1" stop-color="rgb(29,123,170)"/>
	</linearGradient>
</defs>
<path transform="translate(0,0)" fill="rgb(255,255,255)" d="M 0 0 L 2048 0 L 2048 1152 L 0 1152 L 0 0 z"/>
<path transform="translate(0,0)" fill="url(#Gradient10)" d="M 786.488 334.876 C 797.784 333.298 812.485 332.86 824.155 332.471 C 908.038 329.674 992.072 327.813 1076 328.623 C 1099.71 328.852 1123.33 329.984 1147.02 330.31 C 1182.39 330.637 1217.76 331.868 1253.07 334.002 C 1272.65 335.171 1292.36 336.646 1311.73 339.566 C 1322.03 341.119 1332.91 346.526 1333.83 358.046 C 1334.14 361.989 1334.46 365.251 1332.35 368.779 C 1327.54 372.887 1321.75 372.124 1315.56 371.322 C 1254.22 363.379 1192.71 362.644 1130.94 361.347 C 1077.38 359.871 1023.79 359.441 970.203 360.058 C 935.768 360.44 901.235 362.249 866.761 362.175 C 843.601 362.125 816.971 366.484 794.169 365.089 C 792.105 365.513 778.542 366.858 777.124 366.704 C 768.655 365.786 721.582 376.531 717.712 368.708 C 700.886 334.686 768.556 335.845 786.488 334.876 z"/>
<path transform="translate(0,0)" fill="rgb(30,119,174)" d="M 786.488 334.876 C 797.753 335.882 808.273 335.542 819.522 334.44 C 818.527 335.174 817.628 335.809 816.601 336.497 C 819.059 350.148 810.045 348.249 814.113 357.255 C 815.879 358.313 818.272 359.346 819.132 360.896 L 818.136 362.649 C 814.443 362.914 796.192 363.954 794.169 365.089 C 792.105 365.513 778.542 366.858 777.124 366.704 C 768.655 365.786 721.582 376.531 717.712 368.708 C 700.886 334.686 768.556 335.845 786.488 334.876 z"/>
<path transform="translate(0,0)" fill="url(#Gradient9)" d="M 725.768 420.892 C 716.906 415.435 712.258 404.713 717.438 395.224 C 724.2 389.864 747.978 394.613 757.478 395.635 C 770.817 397.07 784.189 398.171 797.583 398.939 C 828.786 400.844 859.008 401.384 890.096 402.243 C 960.052 404.286 1030.05 404.81 1100.02 403.812 C 1132.89 403.418 1165.3 401.993 1198.36 401.829 C 1202.58 400.884 1246.36 398.93 1253 398.917 C 1270.29 398.882 1316.18 391.259 1329.35 393.091 C 1336.47 398.46 1334.71 409.042 1330.03 415.553 C 1323.63 424.472 1307.11 425.238 1297.1 426.816 C 1280.17 428.579 1261.57 429.875 1244.53 430.745 C 1235.82 431.19 1218.11 432.443 1209.52 432.003 C 1201.5 433.454 1183.4 433.221 1174.61 433.369 L 1126.12 434.581 C 1050.26 435.778 974.386 435.525 898.535 433.821 C 849.387 432.52 802.656 431.572 753.391 426.839 C 743.871 425.734 734.464 425.099 725.768 420.892 z"/>
<path transform="translate(0,0)" fill="rgb(52,154,73)" d="M 1198.36 401.829 C 1202.58 400.884 1246.36 398.93 1253 398.917 C 1270.29 398.882 1316.18 391.259 1329.35 393.091 C 1336.47 398.46 1334.71 409.042 1330.03 415.553 C 1323.63 424.472 1307.11 425.238 1297.1 426.816 C 1280.17 428.579 1261.57 429.875 1244.53 430.745 C 1235.82 431.19 1218.11 432.443 1209.52 432.003 C 1199.5 427.448 1150.13 437.343 1142.86 428.652 C 1141.45 422.676 1141.55 412.332 1142.22 406.185 C 1142.67 405.622 1143.12 405.059 1143.58 404.496 C 1156.7 402.822 1186.95 405.773 1198.36 401.829 z"/>
<path transform="translate(0,0)" fill="rgb(30,119,174)" d="M 725.768 420.892 C 726.343 419.26 728.157 409.792 727.852 408.418 C 729.607 410.339 730.619 410.945 732.824 412.323 L 734.057 409.88 C 737.888 409.855 741.496 409.763 745.316 410.135 C 751.261 415.433 757.519 418.524 753.391 426.839 C 743.871 425.734 734.464 425.099 725.768 420.892 z"/>
<path transform="translate(0,0)" fill="url(#Gradient8)" d="M 848.739 472.706 C 866.326 473.637 883.813 476.005 901.388 477.003 C 1019.16 483.691 1139.66 483.675 1256.28 464.195 C 1265.74 462.614 1297.46 455.864 1303.65 450.417 C 1303.8 448.683 1304 446.954 1304.23 445.23 C 1308.46 442.843 1326.16 444.172 1332.01 444.084 C 1332.07 453.469 1332.01 461.696 1324.91 468.808 C 1284.04 509.728 1042.3 509.625 979.549 508.852 C 941.116 508.037 902.724 505.885 864.441 502.398 C 855.901 501.583 833.975 499.835 826.674 498.121 C 803.692 496.792 741.489 485.264 724.928 469.069 C 716.975 461.292 717.353 454.103 717.336 444.12 C 723.845 444.129 739.344 443.409 744.676 444.736 C 745.25 447.394 745.586 448.535 746.555 451.076 C 759.854 459.914 807.883 466.93 825.386 469.242 C 831.497 470.049 843.51 471.153 848.739 472.706 z"/>
<path transform="translate(0,0)" fill="rgb(30,119,174)" d="M 717.336 444.12 C 723.845 444.129 739.344 443.409 744.676 444.736 C 745.25 447.394 745.586 448.535 746.555 451.076 C 759.854 459.914 807.883 466.93 825.386 469.242 C 831.497 470.049 843.51 471.153 848.739 472.706 C 857.962 476.3 874.597 473.916 879.652 481.591 C 880.46 485.221 879.276 496.884 877.921 500.255 C 868.492 504.579 834.477 494.357 826.674 498.121 C 803.692 496.792 741.489 485.264 724.928 469.069 C 716.975 461.292 717.353 454.103 717.336 444.12 z"/>
<path transform="translate(0,0)" fill="url(#Gradient7)" d="M 719.912 493.798 L 742.573 493.897 C 742.663 498.159 742.657 502.75 745.671 506.022 C 770.649 533.14 845.638 544.734 879.605 550.056 C 994.833 565.677 1124.47 563.416 1238.02 536.555 C 1257.83 531.87 1292.61 520.24 1306.1 504.179 L 1306.62 493.799 L 1329.07 493.856 C 1329 506.852 1326.18 515.659 1316.57 525.044 C 1266.23 574.252 1082.14 583.201 1011.27 581.801 C 983.875 581.324 956.505 579.984 929.198 577.782 C 920.676 577.114 901.102 575.711 893.461 573.931 C 889.676 574.207 868.343 571.058 863.01 570.096 C 821.31 562.578 767.835 553.645 734.283 526.526 C 722.474 516.981 720.835 507.503 719.912 493.798 z"/>
<path transform="translate(0,0)" fill="rgb(30,119,174)" d="M 719.912 493.798 L 742.573 493.897 C 742.663 498.159 742.657 502.75 745.671 506.022 C 770.649 533.14 845.638 544.734 879.605 550.056 C 890.344 557.874 970.905 557.452 975.565 561.632 C 973.279 569.505 976.627 572.821 982.178 578.463 C 965.907 579.471 900.255 571.825 893.461 573.931 C 889.676 574.207 868.343 571.058 863.01 570.096 C 821.31 562.578 767.835 553.645 734.283 526.526 C 722.474 516.981 720.835 507.503 719.912 493.798 z"/>
<path transform="translate(0,0)" fill="rgb(34,32,33)" d="M 1127.81 801.948 C 1163.51 807.97 1255.99 787.79 1272.39 829.601 C 1275.45 837.525 1275.3 846.334 1271.96 854.148 C 1263.54 873.428 1238.68 881.453 1219.33 883.87 C 1213.02 884.659 1188.6 887.146 1183.41 884.804 C 1182.86 880.965 1182.91 880.501 1183.72 876.697 C 1187.45 874.482 1196.25 874.277 1201.06 873.518 C 1222.45 870.15 1235.69 857.638 1231.99 835.035 C 1222.72 808.389 1192.73 812.766 1169.89 813.274 L 1169.79 884.015 C 1169.77 907.277 1169.25 928.456 1171.79 951.64 C 1161.86 950.236 1136.57 950.412 1126.77 951.877 C 1130.23 929.44 1129 904.255 1129.87 881.569 C 1130.87 855.082 1128.92 828.411 1127.81 801.948 z"/>
<path transform="translate(0,0)" fill="rgb(34,127,151)" d="M 926.862 116.452 C 959.333 112.806 991.978 110.917 1024.65 110.792 C 1111.59 110.862 1225.6 122.065 1299.38 172.738 C 1309.98 180.017 1330.83 205.348 1323.64 217.855 C 1319.95 220.405 1315.33 219.584 1310.78 219.297 C 1301.48 140.096 1083.83 125.711 1022.19 125.919 C 1006.25 126.087 990.324 126.638 974.414 127.573 C 965.001 128.204 952.148 129.655 943.185 129.703 C 883.845 137.252 810.547 148.256 760.462 183.758 C 754.308 188.12 747.931 194.825 744.016 201.251 C 740.573 206.901 740.866 216.439 735.933 219.705 C 731.882 220.121 723.688 220.118 723.959 214.275 C 724.339 206.063 729.909 193.289 735.279 187.332 C 778.08 139.857 866.125 123.794 926.862 116.452 z"/>
<path transform="translate(0,0)" fill="url(#Gradient6)" d="M 926.862 116.452 C 959.333 112.806 991.978 110.917 1024.65 110.792 C 1111.59 110.862 1225.6 122.065 1299.38 172.738 C 1309.98 180.017 1330.83 205.348 1323.64 217.855 C 1319.95 220.405 1315.33 219.584 1310.78 219.297 C 1301.48 140.096 1083.83 125.711 1022.19 125.919 C 1006.25 126.087 990.324 126.638 974.414 127.573 C 965.001 128.204 952.148 129.655 943.185 129.703 L 943.44 128.477 C 951.427 124.713 1051.26 123.582 1066.04 124.736 C 1070.8 125.107 1080.86 127.014 1086.2 127.178 C 1089.18 127.27 1091.56 125.984 1093.59 123.833 L 1091.45 123.954 C 1092.5 121.498 1092.49 122.392 1092.24 119.92 C 1086.17 114.717 1076.29 113.059 1068.5 113.002 C 1029.07 112.724 989.867 111.838 950.529 115.933 C 944.835 116.526 931.953 118.199 926.862 116.452 z"/>
<path transform="translate(0,0)" fill="url(#Gradient5)" d="M 1042.64 255.23 C 1094.32 253.913 1289.34 261.424 1324.15 294.72 C 1330.28 300.583 1331.96 306.965 1332.04 315.227 C 1332.06 316.83 1332.05 318.433 1332.04 320.036 C 1325.97 320.107 1309.85 320.839 1304.7 319.345 C 1303.7 317.151 1303.81 316.64 1303.68 314.173 C 1298.49 308.57 1267.24 302.02 1258.63 300.434 C 1185.93 287.039 1111.72 284.668 1038 283.019 C 1022.57 282.674 1003.28 284.418 988.462 283.125 L 981.13 282.313 C 980.052 274.277 981.45 264.898 983.359 257.085 C 992.858 257.557 1034.85 257.825 1042.64 255.23 z"/>
<path transform="translate(0,0)" fill="url(#Gradient4)" d="M 915.69 187.658 C 1005.24 177.935 1241.95 178.821 1312.27 235.275 C 1320.15 241.6 1327.91 250.989 1328.82 261.473 C 1329.06 264.245 1329.06 267.067 1329.06 269.847 L 1306.58 269.96 C 1306.3 262.02 1305.81 258.793 1299.49 253.425 C 1289.64 245.058 1274.55 238.964 1262.39 235.122 C 1153.97 200.868 1034.92 202.069 922.716 209.18 C 920.387 201.438 912.61 198.247 916.953 189.53 L 915.69 187.658 z"/>
<path transform="translate(0,0)" fill="rgb(34,32,33)" d="M 588.944 801.981 C 634.354 804.426 668.213 803.526 713.287 802.026 C 711.982 808.889 712.107 810.041 713.128 817.021 C 687.271 817.145 660.969 815.152 633.959 815.276 L 633.947 867.067 C 658.325 866.996 682.702 866.628 707.071 865.963 C 706.518 873.516 706.173 872.637 707.098 880.861 C 683.019 878.755 658.216 879.109 634.004 879.137 C 633.382 897.811 633.943 919.565 633.958 938.48 C 660.978 938.406 687.995 937.954 715.003 937.124 C 713.666 943.211 714.123 946.023 715.151 952.091 C 696.985 950.406 677.166 950.815 658.818 950.754 C 635.491 950.678 612.21 950.567 588.929 952.098 C 592.868 905.917 593.235 848.01 588.944 801.981 z"/>
<path transform="translate(0,0)" fill="url(#Gradient3)" d="M 1310.89 544.962 C 1314.89 544.787 1319.75 544.057 1323.01 546.099 C 1324.67 548.038 1325.86 549.901 1325.45 552.501 C 1323.18 566.761 1311.14 582.491 1300.1 590.841 C 1236.4 639.015 1116.38 652.184 1039.44 653.452 C 1004.27 653.945 969.102 652.312 934.128 648.562 C 880.462 642.966 806.896 628.453 761.534 599.507 L 764.775 598.979 L 766.163 596.9 L 765.533 598.634 L 767.161 597.485 C 764.382 594.629 764.361 593.968 763.905 590.134 L 765.685 589.23 C 765.158 585.916 763.57 585.833 761.432 581.967 L 761.097 581.351 C 869.827 649.747 1062.86 647.302 1185.69 621.573 C 1225.37 613.26 1303.45 591.736 1310.89 544.962 z"/>
<path transform="translate(0,0)" fill="rgb(34,32,33)" d="M 1389.45 801.37 C 1410.5 798.436 1431.64 802.82 1451.54 809.396 C 1447.03 817.963 1444.88 823.618 1441.58 832.733 C 1428.85 813.859 1419.21 810.84 1396.51 811.128 C 1384.57 809.819 1362.59 821.723 1366.09 837.131 C 1372.27 864.288 1428.72 861.02 1446.73 879.181 C 1454 885.425 1459.78 893.351 1460.11 903.637 C 1461.38 943.022 1422.67 952.193 1393.09 954.729 C 1368.68 955.137 1355.38 951.988 1332.46 944.025 C 1336.26 935.782 1336.84 928.164 1340.18 919.728 C 1342.86 919.949 1346.97 925.179 1348.88 927.932 C 1365.51 953.352 1431.26 950.265 1425.89 913.325 C 1421.14 880.733 1339.37 890.645 1335.91 850.757 C 1332.94 816.553 1361.81 804.525 1389.45 801.37 z"/>
<path transform="translate(0,0)" fill="url(#Gradient2)" d="M 719.991 301.555 C 721.378 299.306 722.812 297.162 724.714 295.307 C 764.405 256.606 983.044 254.604 1042.64 255.23 C 1034.85 257.825 992.858 257.557 983.359 257.085 C 981.45 264.898 980.052 274.277 981.13 282.313 L 988.462 283.125 C 970.696 285.586 952.135 284.254 934.211 285.206 C 906.334 286.687 761.083 296.375 746.133 314.781 C 745.103 316.05 744.774 317.887 744.47 319.451 L 742.12 320.581 C 736.769 319.78 723.373 320.047 717.383 320.025 C 717.177 312.586 716.751 308.207 719.991 301.555 z"/>
<path transform="translate(0,0)" fill="rgb(30,119,174)" d="M 719.991 301.555 C 726.762 305.562 728.417 300.864 735.223 299.957 C 738.384 299.536 741.804 299.601 744.979 299.882 L 747.245 301.944 L 747.046 303.583 C 744.581 304.484 742.098 305.334 739.598 306.133 C 738.714 308.895 741.238 317.378 742.12 320.581 C 736.769 319.78 723.373 320.047 717.383 320.025 C 717.177 312.586 716.751 308.207 719.991 301.555 z"/>
<path transform="translate(0,0)" fill="rgb(34,32,33)" d="M 828.944 802.577 C 830.364 804.671 828.411 826.825 828.218 830.957 C 826.822 866.612 826.643 902.304 827.681 937.97 C 852.651 937.992 879.155 938.291 903.896 936.049 C 902.834 942.822 902.965 945.099 903.493 952.037 C 890.058 951.137 878.2 950.972 864.75 950.865 C 839.076 950.728 813.241 950.347 787.622 952.041 C 790.37 898.132 790.114 856.293 787.688 802.606 C 804.68 804.102 811.82 804.02 828.944 802.577 z"/>
<path transform="translate(0,0)" fill="rgb(34,32,33)" d="M 988.816 802.03 C 1007.39 804.226 1016.95 804.057 1035.47 802.189 C 1030.21 834.03 1031 920.144 1035.27 951.927 C 1022.48 950.238 1001.43 950.444 988.68 952.041 C 992.889 907.608 994.001 845.865 988.816 802.03 z"/>
<path transform="translate(0,0)" fill="url(#Gradient1)" d="M 719.986 270.021 C 720.573 259.604 721.794 250.851 729.368 242.792 C 765.04 204.833 866.583 192.3 915.69 187.658 L 916.953 189.53 C 912.61 198.247 920.387 201.438 922.716 209.18 C 872.736 213.548 804.669 223.819 759.645 246.847 C 746.691 253.472 745.184 256.808 741.647 269.365 C 737.378 270.534 725.062 270.069 719.986 270.021 z"/>
<path transform="translate(0,0)" fill="rgb(30,119,174)" d="M 723.773 545.172 L 738.58 544.992 C 741.223 565.094 747.727 567.911 761.097 581.351 L 761.432 581.967 C 763.57 585.833 765.158 585.916 765.685 589.23 L 763.905 590.134 C 764.361 593.968 764.382 594.629 767.161 597.485 L 765.533 598.634 L 766.163 596.9 L 764.775 598.979 L 761.534 599.507 C 756.281 596.153 751.263 592.443 746.516 588.404 C 731.938 575.857 725.142 564.44 723.773 545.172 z"/>
<path transform="translate(0,0)" fill="rgb(239,41,59)" d="M 969.429 999.593 C 978.392 998.469 986.622 1004.69 987.99 1013.62 C 989.358 1022.55 983.368 1030.94 974.479 1032.55 C 968.509 1033.64 962.422 1031.39 958.585 1026.69 C 954.748 1021.99 953.765 1015.58 956.019 1009.95 C 958.273 1004.31 963.409 1000.35 969.429 999.593 z"/>
<path transform="translate(0,0)" fill="rgb(255,255,255)" d="M 848.467 1030.41 C 828.815 1021.94 839.332 995.7 862.123 1001.71 C 882.178 1015.77 863.365 1038.5 848.467 1030.41 z"/>
<path transform="translate(0,0)" fill="rgb(196,194,195)" d="M 848.467 1030.41 C 828.815 1021.94 839.332 995.7 862.123 1001.71 C 882.178 1015.77 863.365 1038.5 848.467 1030.41 L 849.423 1030.39 C 869.079 1029.96 874.014 1014.25 860.499 1002.33 C 859.569 1002.18 858.634 1002.06 857.697 1001.97 C 838.986 1000.1 837.925 1018.84 848.467 1030.41 z"/>
<path transform="translate(0,0)" fill="rgb(196,194,195)" d="M 720.247 1027.53 C 723.748 1017.96 727.084 1008.33 730.253 998.645 C 733.723 1008.15 737.015 1018.45 740.288 1028.08 C 742.503 1022.65 746.589 1004.8 749.646 1001.84 L 750.185 1003.58 C 747.99 1009.04 743.172 1026.32 740.141 1029.67 L 738.65 1029.32 C 735.789 1024.96 731.595 1011.15 729.611 1005.43 L 719.33 1034.56 C 716.057 1025.88 711.4 1009.42 709.024 1000.39 C 713.864 1002.29 718.022 1021.41 720.247 1027.53 z"/>
<path transform="translate(0,0)" fill="rgb(196,194,195)" d="M 994.629 1000.22 L 998.599 1001.31 C 1000.23 1006.52 996.181 1006.71 997.504 1012.3 C 999.949 1015.4 998.719 1014.6 1002.08 1015.8 C 1008.79 1014.7 1012.98 1008.57 1007.04 1002.71 L 1007.61 1001.67 C 1010.25 1002.68 1010.31 1002.86 1012.23 1005.03 C 1014.8 1014.41 1010.03 1009.86 1006.44 1017.1 C 1006.95 1021.27 1008.09 1021.38 1011.18 1025.23 C 1013.02 1027.52 1013.94 1027.87 1014.21 1030.44 L 1012.75 1030.56 C 1007.05 1025.5 1003.33 1020.48 998.018 1014.93 C 998.087 1018.38 998.885 1026.06 996.482 1028.38 L 996.689 1030.14 C 993.867 1025.15 994.542 1006.83 994.629 1000.22 z"/>
<path transform="translate(0,0)" fill="rgb(196,194,195)" d="M 1165.27 1010.12 C 1171.26 1009.84 1174.25 1011.02 1176.88 1016.61 C 1175.56 1022.08 1165.04 1018.99 1160.97 1022.86 L 1161.13 1024.9 C 1163.65 1028.43 1165.49 1029.36 1169.11 1031.72 C 1170.6 1030.71 1172.41 1029.69 1173.98 1028.75 L 1174.25 1029.25 C 1157.25 1038.15 1151.5 1017.07 1165.27 1010.12 z"/>
<path transform="translate(0,0)" fill="rgb(255,255,255)" d="M 1165.27 1010.12 C 1169.32 1011.05 1169.89 1011.17 1172.64 1014.42 C 1173.02 1016.57 1173.48 1018.47 1170.72 1019.53 C 1167.41 1019.4 1164.51 1019.75 1161.99 1017.87 C 1161.94 1014.56 1163.34 1013.31 1165.27 1010.12 z"/>
<path transform="translate(0,0)" fill="rgb(196,194,195)" d="M 1394.63 1009.95 C 1400.74 1010.14 1405.54 1011.38 1406.7 1018.28 C 1402.57 1021.27 1396.29 1018.36 1391.46 1022.52 C 1391.61 1026.35 1392.02 1025.81 1394.32 1029.46 C 1396.88 1029.78 1397.18 1029.86 1399.57 1030.78 C 1394.37 1035.4 1377.15 1020.46 1394.63 1009.95 z"/>
<path transform="translate(0,0)" fill="rgb(255,255,255)" d="M 1394.07 1011.3 C 1398.55 1011.33 1399.75 1011.79 1402.97 1014.92 C 1403.45 1017.73 1403.7 1016.56 1401.95 1019.1 C 1398.41 1019.22 1395.15 1019.76 1392.1 1018.22 C 1391.61 1015.08 1392.52 1014.64 1394.07 1011.3 z"/>
<path transform="translate(0,0)" fill="rgb(196,194,195)" d="M 778.37 1000.63 L 783.468 1001.48 C 781.807 1005.06 781.113 1012.25 783.576 1015.75 C 790.708 1017.19 796.606 1011.61 793.172 1003.27 C 795.666 1002.65 794.44 1002.55 796.924 1003.92 C 799.265 1010.2 792.947 1014.42 788.285 1016.63 L 794.824 1024.84 C 796.625 1027.01 797.924 1027.74 797.945 1030.06 L 798.547 1029.93 L 798.457 1030.87 L 797.952 1029.82 L 798.34 1031.27 C 794.939 1029.82 784.977 1017.35 781.891 1013.66 C 781.833 1019.13 782.214 1024.58 782.149 1030.05 L 780.697 1031.15 L 778.787 1030.61 C 778.06 1024.38 778.866 1009.28 778.37 1000.63 z"/>
<path transform="translate(0,0)" fill="rgb(196,194,195)" d="M 886.663 1001.17 C 890.889 1000.86 898.856 1000.5 902.573 1002.13 L 902.856 1003.64 C 898.197 1004.92 892.083 999.644 886.614 1002.73 C 870.023 1012.07 886.62 1039.26 900.901 1028.75 C 900.752 1024.99 900.256 1021.74 901.942 1018.41 L 903.027 1018.58 C 904.849 1022.3 904.25 1026.02 904.047 1030.21 C 893.028 1032.16 873.876 1032.46 875.695 1013.08 C 876.164 1008.09 882.293 1003.53 886.663 1001.17 z"/>
<path transform="translate(0,0)" fill="rgb(196,194,195)" d="M 683.184 1001.27 C 692.502 1000.74 701.634 1000.89 705.288 1011.55 C 706.583 1015.23 706.339 1019.28 704.611 1022.79 C 701.387 1029.24 690.39 1034.2 684.115 1030.96 C 687.764 1026.3 700.199 1037.06 702.941 1015.46 C 701.079 1005.75 696.928 999.982 686.292 1002.17 C 672.876 1004.92 677.629 1019.2 679.942 1028.15 C 676.432 1026.17 674.974 1023.01 674.393 1019.17 C 673.009 1010.02 676.079 1006.21 683.184 1001.27 z"/>
<path transform="translate(0,0)" fill="rgb(196,194,195)" d="M 589.065 1000.82 C 593.749 1000.95 598.518 1001.19 603.209 1001.37 C 599.584 1002.2 596.206 1002.71 593.057 1004.67 C 589.905 1019.51 600.364 1012.58 602.942 1016.39 C 599.582 1016.39 596.392 1016.06 593.355 1017.31 L 592.616 1019.76 C 592.634 1023.51 592.451 1025.95 593.59 1029.54 L 604.223 1030.55 C 603.3 1031.16 591.156 1031.37 589.007 1031.46 L 589.065 1000.82 z"/>
<path transform="translate(0,0)" fill="rgb(196,194,195)" d="M 613.159 1000.68 C 615.625 1002.89 624.162 1020.09 626.728 1024.65 C 628.347 1022.06 628.842 1021 631.149 1018.91 C 630.777 1022.24 627.859 1027.74 626.311 1031.04 C 624.475 1027.82 622.578 1023.99 620.826 1020.66 C 618.916 1016.42 616.613 1011.88 614.58 1007.65 C 613.69 1013.55 613.391 1027.85 610.601 1031.03 L 609.552 1030.79 C 611.043 1019.7 612.872 1012.08 613.159 1000.68 z"/>
<path transform="translate(0,0)" fill="rgb(196,194,195)" d="M 651.397 1000.24 C 660.122 1003.09 651.219 1009.45 655.556 1015.69 C 658.803 1016.53 659.907 1017.03 663.236 1016.1 C 668.145 1011.45 664.794 1008.71 665.135 1002.03 C 670.389 1005.63 669.588 1006.03 669.49 1012.26 L 668.855 1012.83 C 664.332 1016.99 661.656 1016.38 655.825 1017.52 C 653.724 1020.9 655.672 1025 654.334 1030.34 L 652.53 1031.12 L 651.316 1029.98 C 650.676 1024.41 651.147 1006.19 651.397 1000.24 z"/>
<path transform="translate(0,0)" fill="rgb(196,194,195)" d="M 756.12 1001 C 760.041 1001.03 767.575 1000.85 771.107 1001.64 L 759.834 1003.47 C 757.959 1008.32 757.203 1009.06 760.362 1013.32 C 763.52 1015.02 764.52 1014.96 768.073 1015.05 L 769.125 1015.07 C 761.957 1018.21 760.613 1014.29 758.953 1023.42 L 759.722 1027.61 C 762.371 1030.18 765.844 1030.11 770.001 1030.92 C 765.143 1031.52 760.901 1031.48 756.036 1031.51 C 756.903 1021.2 757.217 1011.31 756.12 1001 z"/>
<path transform="translate(0,0)" fill="rgb(196,194,195)" d="M 1046.08 1009.62 L 1049.63 1011.53 C 1053 1010.6 1054.88 1009.81 1058.37 1010.5 C 1064.99 1014.83 1064.37 1023.54 1061.14 1029.81 C 1060.4 1027.23 1060.54 1020.29 1060.51 1017.24 C 1059.74 1014.5 1058.22 1013.08 1056.4 1010.86 C 1050.19 1009.69 1048.31 1025.22 1047.03 1030.39 C 1045.44 1028.42 1046.03 1013.07 1046.08 1009.62 z"/>
<path transform="translate(0,0)" fill="rgb(196,194,195)" d="M 1220.15 1000.15 L 1222.55 1001.21 C 1224.79 1007.71 1219.54 1011.2 1224.85 1016.27 C 1232.12 1017.73 1238.58 1010.62 1232.88 1002.5 L 1232.27 1001.64 C 1234.99 1002.22 1235.08 1002.49 1237.14 1004.53 C 1238.51 1007.57 1237.97 1009.68 1237.59 1012.95 C 1232.69 1016.65 1229.92 1016.55 1224.04 1017.49 C 1222.28 1019.88 1223.62 1025.37 1222.56 1030.33 L 1221.06 1030.85 C 1219.14 1028.14 1220.11 1005.01 1220.15 1000.15 z"/>
<path transform="translate(0,0)" fill="rgb(196,194,195)" d="M 933.066 1001.51 C 935.584 1000.64 949.253 1000.7 952.466 1001.76 L 951.915 1003.17 C 951.155 1003.1 949.676 1002.99 948.976 1002.97 C 941.552 1002.81 943.679 1017.22 943.907 1023.25 L 943.964 1027.99 C 943.418 1028.98 943.008 1029.64 942.741 1030.76 C 940.811 1027.54 940.863 1008.58 940.755 1004.01 C 938.903 1002.22 937.814 1002.88 934.508 1002.92 L 933.066 1001.51 z"/>
<path transform="translate(0,0)" fill="rgb(196,194,195)" d="M 914.401 1001.75 L 915.301 1002.46 C 914.201 1005.24 913.624 1006.06 913.969 1009 C 919.891 1017.19 935.644 1016.37 923.426 1030.16 C 921.031 1028.44 927.289 1024.89 923.796 1020.98 C 918.87 1015.47 912.724 1017.15 910.452 1009.18 C 910.991 1005.35 911.95 1004.58 914.401 1001.75 z"/>
<path transform="translate(0,0)" fill="rgb(196,194,195)" d="M 639.461 1001.71 C 642.175 1004.87 645.051 1028.32 642.405 1031.16 L 640.447 1030.72 C 639.569 1019.73 638.854 1020.16 637.039 1010.43 L 636.589 1011.91 C 635.902 1006.85 636.831 1007.18 639.461 1001.71 z"/>
<path transform="translate(0,0)" fill="rgb(196,194,195)" d="M 1284.45 1010.67 C 1287.16 1013.58 1281.94 1013.09 1282.72 1018.21 C 1286.58 1020.11 1292.26 1020.72 1294.74 1016.53 L 1293.9 1013.49 L 1294.52 1012.73 C 1297.19 1014.46 1297.45 1016.6 1296.99 1019.35 C 1292.44 1021.68 1290.12 1018.75 1283.95 1020.42 C 1281.77 1022.69 1282.45 1022.36 1282.46 1026.24 C 1283.79 1027.68 1284.73 1028.28 1286.28 1029.41 C 1290.27 1030.22 1292.04 1029.5 1295.98 1028.49 L 1296.23 1029.48 C 1286.63 1038.24 1270.62 1022.15 1284.45 1010.67 z"/>
<path transform="translate(0,0)" fill="rgb(196,194,195)" d="M 818.742 1000.15 L 820.393 1000.89 C 823.072 1004.71 822.012 1024.3 821.931 1030.29 C 825.885 1030.09 828.389 1029.82 832.309 1030.53 C 831.481 1030.76 820.033 1031.37 818.542 1031.46 L 818.742 1000.15 z"/>
<path transform="translate(0,0)" fill="rgb(196,194,195)" d="M 1256.04 1009.83 C 1257.51 1010.71 1258.18 1011.55 1259.4 1012.75 C 1259.63 1022.28 1258.08 1030.63 1258.1 1040.21 C 1257.83 1041.62 1258.04 1040.94 1256.84 1042.18 L 1255.83 1040.82 C 1255.26 1034.49 1254.37 1015.55 1256.04 1009.83 z"/>
<path transform="translate(0,0)" fill="rgb(196,194,195)" d="M 1336.03 1009.44 C 1340.58 1012.33 1343.29 1021.79 1345.6 1027.57 C 1348.14 1021.16 1349.48 1017.52 1353.15 1011.59 C 1353.22 1013.53 1351.68 1017.47 1351 1019.5 C 1348.75 1022.97 1347.34 1027.04 1345.82 1030.92 L 1344.09 1031.33 L 1344.17 1031.68 C 1341.13 1025.63 1336.55 1016.17 1336.03 1009.44 z"/>
<path transform="translate(0,0)" fill="rgb(196,194,195)" d="M 1114.29 997.547 C 1118.74 999.807 1116.75 1026.06 1116.61 1032.17 C 1110.97 1029.41 1113.64 1003.83 1114.29 997.547 z"/>
<path transform="translate(0,0)" fill="rgb(196,194,195)" d="M 1318.33 1001.91 C 1318.71 1003.7 1317.81 1005.64 1317.23 1007.56 C 1320.1 1015.1 1330.8 1014.04 1331.82 1023.47 C 1330.76 1026.57 1330.29 1026.9 1327.84 1029.13 L 1327.18 1028.91 C 1333.08 1015.59 1317.44 1019.94 1314.54 1009.16 C 1315.22 1005.27 1315.83 1004.74 1318.33 1001.91 z"/>
<path transform="translate(0,0)" fill="rgb(196,194,195)" d="M 1360.98 1010.6 L 1362.35 1011.67 C 1361.62 1013.78 1361.62 1013.82 1361.44 1016.04 C 1365.76 1020.52 1372.2 1020.86 1371.74 1027.27 C 1367.72 1032.76 1363.43 1032.5 1357.7 1030.53 L 1358.58 1028.71 C 1361 1029.1 1363.42 1029.46 1365.85 1029.79 C 1368.37 1028.5 1367.54 1029.3 1368.69 1026.04 C 1366.09 1020.85 1361.81 1023.74 1357.88 1017.61 C 1357.72 1014.31 1359 1013.18 1360.98 1010.6 z"/>
<path transform="translate(0,0)" fill="rgb(196,194,195)" d="M 1148.15 1004.5 C 1157.26 1009.8 1144.34 1022.72 1153.16 1031.28 L 1150.98 1031.55 C 1144 1028.48 1145.71 1010.54 1148.15 1004.5 z"/>
<path transform="translate(0,0)" fill="rgb(196,194,195)" d="M 1070.54 1011.65 L 1071.67 1012.66 L 1071.55 1015.49 C 1074.05 1020.41 1081.19 1018.69 1082.79 1025.4 C 1080.55 1031.99 1075.1 1031.87 1069.46 1031.27 C 1069.35 1029.74 1069.37 1030.31 1070.08 1028.74 C 1073.04 1029.45 1074.32 1029.73 1077.34 1029.94 L 1078.67 1028.6 C 1078.77 1019.29 1074.52 1024.98 1069.68 1019 C 1068.65 1015.95 1069.46 1014.61 1070.54 1011.65 z"/>
<path transform="translate(0,0)" fill="rgb(196,194,195)" d="M 1378.78 1004.76 C 1385.83 1010.39 1374.12 1022.55 1383.45 1031.58 C 1381.79 1031.63 1380.69 1031.15 1379.12 1030.65 C 1376.02 1027.33 1375.57 1013.47 1377 1009.63 L 1378.78 1004.76 z"/>
<path transform="translate(0,0)" fill="rgb(196,194,195)" d="M 1128.02 1010.41 C 1142.42 1008.22 1139.94 1021.52 1139.56 1031.02 L 1136.59 1031.72 C 1133.19 1026.19 1137.74 1018.14 1134.65 1013.05 C 1131.16 1011.05 1132.03 1011.65 1127.62 1011.62 L 1128.02 1010.41 z"/>
<path transform="translate(0,0)" fill="rgb(196,194,195)" d="M 1433.11 1010.58 C 1436.08 1009.58 1437.24 1010.4 1439.74 1011.68 C 1443.49 1016.72 1442 1025.74 1441.53 1032.03 L 1438.83 1030.4 C 1437.15 1024.62 1439.2 1020.53 1438 1014.35 C 1435.64 1011.86 1436.65 1012.67 1432.57 1011.69 L 1433.11 1010.58 z"/>
<path transform="translate(0,0)" fill="rgb(196,194,195)" d="M 1185.13 1010.4 L 1186.69 1011.21 C 1183.56 1018.43 1180.09 1029.7 1191.57 1030.17 L 1191.97 1030.98 C 1177.28 1033.88 1177.74 1019.33 1185.13 1010.4 z"/>
<path transform="translate(0,0)" fill="rgb(196,194,195)" d="M 1450.39 1010.02 C 1454.46 1009.75 1454.94 1009.92 1458.6 1011.57 C 1454.97 1011.9 1453.34 1011.85 1450.01 1013.54 L 1450.05 1015.32 C 1453.21 1019.36 1456.54 1020.26 1461.21 1023.24 C 1460.33 1026.49 1459.87 1027.85 1457.49 1029.74 C 1456.54 1018.26 1450.24 1023.82 1447.32 1016.86 C 1447.83 1013.39 1448.39 1012.81 1450.39 1010.02 z"/>
<path transform="translate(0,0)" fill="rgb(163,162,164)" d="M 1197.11 998.463 C 1200.66 1001.12 1199.69 1027.52 1198.29 1031.83 C 1194.63 1026.01 1196.85 1006.72 1197.11 998.463 z"/>
<path transform="translate(0,0)" fill="rgb(196,194,195)" d="M 1412.09 1009.59 C 1413.98 1011.38 1414.71 1011.72 1417.28 1012.13 C 1414.28 1020.06 1414.36 1020.59 1414.66 1029.04 C 1414.61 1030.75 1414.83 1029.91 1413.43 1031.44 L 1412.22 1030.41 C 1411.26 1024.59 1410.87 1015.34 1412.09 1009.59 z"/>
<path transform="translate(0,0)" fill="rgb(196,194,195)" d="M 1244.73 1009.36 C 1249.91 1012.14 1247.71 1026.29 1247.41 1031.76 L 1245.29 1030.84 C 1242.98 1027.27 1244.37 1014.04 1244.73 1009.36 z"/>
<path transform="translate(0,0)" fill="rgb(196,194,195)" d="M 1089.14 1009.7 C 1095.6 1016.8 1082.74 1025.29 1098.35 1031.03 C 1084.88 1033.44 1086.32 1017.99 1089.14 1009.7 z"/>
<path transform="translate(0,0)" fill="rgb(196,194,195)" d="M 1263.73 1009.63 C 1276.77 1010.71 1277.02 1020.98 1271.06 1030.19 L 1269.56 1029.9 C 1270.86 1021.27 1274.62 1014.87 1263.73 1009.63 z"/>
<path transform="translate(0,0)" fill="rgb(163,162,164)" d="M 1035.17 1000.6 C 1038.43 1003.12 1036.95 1025.88 1036.85 1031.42 L 1035.27 1029.87 C 1034.31 1022.89 1034.92 1008.1 1035.17 1000.6 z"/>
<path transform="translate(0,0)" fill="rgb(196,194,195)" d="M 1102.7 1010.4 L 1104.48 1012.15 C 1105.31 1017.57 1105.3 1026.85 1104.2 1032.19 C 1100.21 1025.83 1102.04 1018.58 1102.7 1010.4 z"/>
<path transform="translate(0,0)" fill="rgb(163,162,164)" d="M 1419.2 1009.41 C 1423.48 1010.5 1424.38 1011.46 1427.84 1014.16 C 1427.43 1019.42 1427.39 1025.04 1427.26 1030.33 L 1426.57 1030.17 C 1423.1 1025.12 1431.15 1017.47 1419.2 1009.41 z"/>
</svg>