<svg version="1.1" xmlns="http://www.w3.org/2000/svg" style="display: block;" viewBox="0 0 2048 1152" width="1600" height="900" preserveAspectRatio="none">
<path transform="translate(0,0)" fill="rgb(255,255,255)" d="M 0 0 L 2048 0 L 2048 1152 L 0 1152 L 0 0 z"/>
<path transform="translate(0,0)" fill="rgb(22,27,46)" d="M 604.777 63.4363 C 773.111 48.4903 921.644 172.943 936.398 341.294 C 951.151 509.645 826.529 658.036 658.161 672.597 C 490.065 687.135 341.966 562.758 327.236 394.678 C 312.506 226.599 436.714 78.3581 604.777 63.4363 z"/>
<path transform="translate(0,0)" fill="rgb(254,237,26)" d="M 610.291 84.4234 C 766.861 72.5322 903.436 189.793 915.371 346.36 C 927.307 502.927 810.084 639.535 653.521 651.515 C 496.895 663.499 360.22 546.219 348.28 389.59 C 336.34 232.961 453.658 96.3193 610.291 84.4234 z"/>
<path transform="translate(0,0)" fill="rgb(22,27,46)" d="M 620.086 215.473 C 704.302 208.996 777.822 272.02 784.291 356.238 C 790.76 440.455 727.728 513.968 643.511 520.429 C 559.304 526.889 485.802 463.868 479.334 379.662 C 472.866 295.456 535.881 221.948 620.086 215.473 z"/>
<path transform="translate(0,0)" fill="rgb(22,27,46)" d="M 1093.05 249.334 C 1097.21 248.912 1101.38 248.696 1105.55 248.689 C 1126.56 248.686 1147.4 255.969 1162.12 271.452 C 1204.98 316.517 1204.22 422.33 1160.57 466.773 C 1145.01 482.616 1122.62 489.648 1100.89 489.21 C 1070.58 488.598 1056.17 477.158 1036.26 456.603 C 1040.98 487.445 1039.88 515.48 1039.82 546.5 L 1039.83 587.082 L 976.092 587.079 L 976.089 252.866 L 1027.72 252.882 C 1031.17 263.37 1034.37 274.661 1037.57 285.282 C 1054.09 264.54 1064.36 253.211 1093.05 249.334 z"/>
<path transform="translate(0,0)" fill="rgb(255,255,255)" d="M 1080.59 299.315 C 1113.2 296.245 1126.17 324.193 1127.79 352.023 C 1129.64 383.796 1129.1 434.223 1087.35 437.62 C 1059.55 438.088 1045.06 422.264 1041.52 394.87 C 1038.36 370.395 1036.97 335.535 1050.97 313.841 C 1057.67 303.463 1069.25 300.938 1080.59 299.315 z"/>
<path transform="translate(0,0)" fill="rgb(22,27,46)" d="M 1477.13 252.87 L 1540.71 252.894 L 1540.65 333.5 L 1540.7 484.931 L 1492.05 484.958 L 1482.53 452.925 C 1479.21 457.152 1475.57 462.001 1471.82 465.882 C 1442.4 496.346 1378.02 497.486 1347.8 467.953 C 1339.42 459.761 1331.55 444.562 1329.3 432.657 C 1324.83 408.979 1326.31 382.918 1326.32 358.725 L 1326.36 252.874 L 1390 252.892 L 1389.93 350.161 C 1389.91 382.073 1381.47 437.181 1425.86 438.466 C 1484.65 440.169 1477.17 371.962 1477.16 332.245 L 1477.13 252.87 z"/>
<path transform="translate(0,0)" fill="rgb(22,27,46)" d="M 194.983 249.398 C 229.326 244.919 263.09 253.199 294.373 266.666 C 288.793 281.467 281.472 297.988 275.339 312.744 C 257.307 304.302 233.77 295.686 213.771 295.754 C 205.209 295.784 193.77 295.552 187.392 302.051 C 185.211 304.273 182.483 308.66 183.072 311.537 C 186.961 330.54 231.883 341.401 247.855 350.546 C 259.376 357.142 266.089 358.919 275.839 367.441 C 288.804 378.444 295.676 391.751 296.917 408.8 C 300.687 460.564 264.473 484.84 217.5 488.273 C 187.881 492.9 149.168 486.406 121.057 475.712 L 121.066 423.166 C 146.953 434.2 173.299 442.265 201.796 442.612 C 213.992 442.76 237.022 437.875 234.743 421.583 C 231.823 400.709 186.716 389.851 170.559 380.37 C 161.44 375.019 151.402 371.424 143.225 364.126 C 117.028 345.245 113.185 300.782 133.033 275.972 C 146.909 258.627 172.898 251.65 194.983 249.398 z"/>
<path transform="translate(0,0)" fill="rgb(22,27,46)" d="M 1647.56 249.392 C 1680.75 244.814 1716.74 253.596 1746.89 266.935 C 1740.42 279.675 1733.43 298.754 1727.27 312.66 C 1705.98 303.136 1683.31 294.506 1659.79 295.821 C 1652.34 296.237 1644.72 296.535 1639.23 302.484 C 1637.12 304.777 1634.34 309.254 1635.07 312.12 C 1639.79 330.502 1683.57 341.367 1699.85 350.472 C 1710.3 355.096 1718.71 360.42 1727.79 367.293 C 1755.42 388.193 1755.29 436.512 1733.5 461.592 C 1718.92 478.36 1693.14 486.718 1670.76 488.175 C 1635.21 491.904 1606.54 487.684 1573.38 476.004 L 1573.38 423.389 C 1600.95 434.871 1629.07 443.515 1659.35 442.409 C 1670.41 442.005 1690.38 433.939 1687.24 421.035 C 1682.15 400.165 1639.51 390.268 1622.55 380.357 C 1613.24 374.917 1603.53 371.429 1595.23 364.099 C 1569.28 345.388 1565.14 300.044 1585.52 275.739 C 1600.29 258.135 1624.83 251.611 1647.56 249.392 z"/>
<path transform="translate(0,0)" fill="rgb(22,27,46)" d="M 1223.59 162.056 L 1287.02 162.053 L 1287.01 484.927 L 1223.59 484.946 L 1223.59 162.056 z"/>
<path transform="translate(0,0)" fill="rgb(36,159,138)" d="M 1368.38 975.517 C 1433.35 973.518 1515.33 976.067 1580.05 979.156 C 1711.06 984.68 1841.6 998.424 1970.89 1020.31 C 1978.37 1021.62 2022.87 1028.67 2026.94 1031.48 C 2029.03 1034.62 2028.75 1033.32 2028.63 1036.56 C 2026.05 1039.11 2020.9 1039.68 2017.48 1039.06 C 1965.05 1029.58 1912.65 1020.94 1859.79 1013.95 C 1574.38 978.792 1285.9 976.221 999.909 1006.29 C 866.065 1017.93 711.85 1042.21 580.453 1068.16 C 540.714 1075.95 501.123 1084.47 461.698 1093.72 C 441.197 1098.58 417.777 1105.09 397.052 1108.95 C 394.485 1109.43 393.173 1108.01 391.564 1106.57 C 390.679 1103.77 390.597 1104.92 391.742 1102.4 C 398.822 1096.31 475.202 1079.83 490.123 1076.52 C 778.661 1012.96 1072.95 979.114 1368.38 975.517 z"/>
<path transform="translate(0,0)" fill="rgb(22,27,46)" d="M 21.9599 252.883 L 85.267 252.896 L 85.2776 484.978 L 21.9832 484.967 L 21.9599 252.883 z"/>
<path transform="translate(0,0)" fill="rgb(22,27,46)" d="M 1751.11 144.349 C 1767.32 141.561 1783.77 147.701 1794.19 160.424 C 1804.61 173.147 1807.39 190.489 1801.46 205.83 C 1795.54 221.17 1781.82 232.141 1765.56 234.554 C 1740.8 238.224 1717.7 221.298 1713.75 196.59 C 1709.79 171.882 1726.45 148.59 1751.11 144.349 z"/>
<path transform="translate(0,0)" fill="rgb(255,255,255)" d="M 1751.11 152.785 C 1771.16 148.66 1790.77 161.508 1794.99 181.534 C 1799.22 201.559 1786.47 221.233 1766.46 225.554 C 1746.32 229.906 1726.48 217.045 1722.22 196.881 C 1717.97 176.716 1730.93 156.939 1751.11 152.785 z"/>
<path transform="translate(0,0)" fill="rgb(22,27,46)" d="M 1741.13 161.707 C 1750.57 161.533 1768.83 159.643 1774.23 167.69 C 1781.37 178.316 1776.44 186.549 1767.91 192.782 C 1771.3 198.594 1780.02 209.31 1779.56 214.574 C 1776.67 217.006 1775.39 216.149 1770.61 216.295 C 1768.33 212.286 1760.9 197.532 1757.94 195.72 C 1753.91 195.736 1755.22 195.258 1752.15 196.996 C 1749.17 202.724 1757.65 220.539 1741.64 215.735 C 1740.56 212.952 1741.13 168.155 1741.13 161.707 z"/>
<path transform="translate(0,0)" fill="rgb(255,255,255)" d="M 1751.56 170.223 C 1758.13 170.158 1763.34 169.588 1766.87 175.812 C 1767.23 180.064 1766.86 180.743 1765.34 184.644 C 1761.09 187.28 1756.61 188.991 1752.58 185.485 C 1750.72 181.434 1751.43 174.896 1751.56 170.223 z"/>
<path transform="translate(0,0)" fill="rgb(22,27,46)" d="M 1134 780.877 C 1152.59 780.783 1179.28 778.143 1193.63 791.345 C 1211.91 808.173 1209.96 840.247 1194.54 858.192 C 1177.42 872.915 1155.67 870.248 1134.02 870.153 L 1134 780.877 z"/>
<path transform="translate(0,0)" fill="rgb(255,255,255)" d="M 1148.94 793.226 C 1158.46 793.213 1172.77 792.297 1180.46 798.513 C 1195.15 810.386 1193.67 835.825 1183.04 849.661 C 1172.51 858.588 1162.01 857.491 1148.86 857.514 L 1148.94 793.226 z"/>
<path transform="translate(0,0)" fill="rgb(22,27,46)" d="M 1903.98 801.301 C 1910.05 801.16 1937.12 801.912 1941.37 805.742 C 1942.04 808.706 1942.22 807.5 1940.59 810.242 C 1933.03 811.698 1931.55 813.267 1932.69 821.089 C 1936.25 845.451 1918.46 844.864 1900.74 847.871 C 1898.16 848.309 1897.57 850.269 1896.63 852.409 C 1900.77 866.982 1933.7 843.149 1941.47 876.031 C 1940.2 881.63 1939.76 883.361 1937.39 888.533 C 1935.01 890.949 1933.05 892.612 1929.86 894.693 C 1914.7 904.574 1864.36 902.486 1877.55 873.647 C 1880.06 868.139 1885.17 868.865 1888.91 864.437 C 1886.84 862.321 1884.56 859.769 1884.03 856.864 C 1882.91 850.687 1886.49 849.598 1889.57 845.529 C 1889.7 845.367 1890.39 844.022 1890.36 843.991 C 1886.31 838.856 1882.21 833.165 1881.09 826.691 C 1880.19 821.514 1880.31 815.492 1883.5 811.353 C 1888.64 804.68 1896.31 802.508 1903.98 801.301 z"/>
<path transform="translate(0,0)" fill="rgb(255,255,255)" d="M 1896.79 870.116 C 1905.54 869.333 1926.27 867.72 1928.37 878.987 C 1926.94 883.427 1922.62 886.045 1918.73 888.15 C 1909.35 890.35 1894.68 891.516 1888.41 882.376 C 1887.04 875.859 1891.51 872.911 1896.79 870.116 z"/>
<path transform="translate(0,0)" fill="rgb(255,255,255)" d="M 1901.7 811.109 C 1903.64 810.907 1905.59 810.806 1907.54 810.806 C 1921.12 810.921 1924.01 827.601 1913.56 836.841 C 1893.59 839.408 1888.2 822.225 1901.7 811.109 z"/>
<path transform="translate(0,0)" fill="rgb(22,27,46)" d="M 1048.93 801.276 C 1054.51 801.089 1062.97 802.583 1069 802.775 C 1074.08 802.936 1080.14 802.501 1084.92 803.058 C 1086.68 806.367 1086.22 804.924 1086.16 809.095 C 1083.73 812.625 1081.16 810.403 1077.02 812.491 C 1076.84 812.581 1075.95 813.395 1075.97 813.446 C 1077.66 819.941 1079.12 827.471 1077.04 834.166 C 1072.64 848.363 1052.49 844.001 1043.94 848.206 C 1041.28 851.686 1041.89 850.096 1041.35 854.21 C 1046.83 860.762 1070.35 854.389 1079.02 861.648 C 1088 869.17 1086.87 880.906 1080.92 889.905 C 1067.09 902.081 1023.08 908.498 1019.92 880.518 C 1019.03 872.668 1028.2 868.988 1033.22 864.884 C 1033.41 861.951 1030.75 859.916 1028.42 856.647 C 1027.85 849.663 1030.6 850.343 1034.24 845.704 C 1034.34 845.573 1035.19 843.995 1035.15 843.95 C 1030.9 838.772 1027.06 833.471 1025.81 826.719 C 1024.92 821.852 1025.05 815.457 1028.32 811.284 C 1033.61 804.535 1041.06 802.52 1048.93 801.276 z"/>
<path transform="translate(0,0)" fill="rgb(255,255,255)" d="M 1041.76 870.101 C 1047.27 869.87 1059.18 868.849 1063.91 870.188 C 1078.39 874.291 1072.26 883.965 1062.49 888.542 C 1052.58 889.997 1039.34 891.538 1032.33 882.388 C 1031 876.117 1036.55 872.58 1041.76 870.101 z"/>
<path transform="translate(0,0)" fill="rgb(255,255,255)" d="M 1046.7 810.951 C 1067.58 809.581 1070.49 829.827 1056.35 837.239 C 1050.93 837.65 1046.43 837.611 1042.47 833.249 C 1040.07 830.64 1038.86 827.138 1039.16 823.6 C 1039.69 817.54 1042.21 814.532 1046.7 810.951 z"/>
<path transform="translate(0,0)" fill="rgb(22,27,46)" d="M 516.992 801.313 C 558.501 798.592 567.246 860.738 525.756 871.197 C 517.711 871.327 508.11 871.204 501.88 865.769 C 478.328 845.221 483.952 806.558 516.992 801.313 z"/>
<path transform="translate(0,0)" fill="rgb(255,255,255)" d="M 517.298 813.131 C 540.459 812.827 542.464 840.565 531.141 855.371 C 530.027 856.828 525.921 858.596 524.139 859.388 C 513.788 859.507 507.023 856.401 504.109 846.042 C 500.35 832.68 502.796 817.507 517.298 813.131 z"/>
<path transform="translate(0,0)" fill="rgb(22,27,46)" d="M 46.9101 162.246 C 76.6106 160.666 98.7851 176.091 84.4098 210.139 C 81.0863 218.011 69.0464 222.131 61.0061 223.945 C 49.8664 224.36 40.8981 224.525 30.989 218.222 C 15.1626 208.155 14.3783 179.883 29.4212 168.823 C 35.0965 164.651 40.0864 163.506 46.9101 162.246 z"/>
<path transform="translate(0,0)" fill="rgb(22,27,46)" d="M 1780.74 801.303 C 1807.75 799.763 1813.23 816.975 1813.22 839.76 L 1767.87 839.737 C 1771.81 862.563 1785.71 862.087 1804.79 856.852 C 1806.74 855.973 1806.82 856.102 1808.88 856.139 C 1810.66 859.551 1809.92 862.752 1809.83 867.007 C 1743.24 889.862 1736.43 809.696 1780.74 801.303 z"/>
<path transform="translate(0,0)" fill="rgb(255,255,255)" d="M 1782.43 812.054 C 1790.31 812.74 1802.81 818.304 1797.5 827.747 C 1794.75 830.042 1790.26 829.343 1786.5 829.214 C 1781.7 829.287 1772 830.105 1768.69 827.735 C 1767.08 820.571 1776.2 814.041 1782.43 812.054 z"/>
<path transform="translate(0,0)" fill="rgb(22,27,46)" d="M 753.053 801.259 C 779.568 800.096 784.221 817.9 784.269 839.754 C 775.412 839.867 747.23 838.593 740.722 840.553 C 736.952 846.515 743.57 854.118 748.786 856.942 C 757.994 861.928 767.356 859.341 776.784 856.669 L 779.069 855.898 C 780.311 856.644 780.336 856.211 780.73 857.482 C 784.77 870.501 766.641 871.471 758.827 871.569 C 741.735 871.784 727.078 861.238 725.004 843.795 C 722.383 821.75 729.853 804.817 753.053 801.259 z"/>
<path transform="translate(0,0)" fill="rgb(255,255,255)" d="M 753.543 812.056 C 761.736 812.175 773.364 818.544 768.334 827.93 C 765.4 830.027 761.934 829.342 758.086 829.213 L 739.194 829.238 C 742.241 818.904 742.563 815.753 753.543 812.056 z"/>
<path transform="translate(0,0)" fill="rgb(22,27,46)" d="M 1608.89 780.861 L 1659.34 780.87 L 1659.26 793.543 L 1623.38 793.499 L 1623.38 817.486 L 1657 817.494 L 1657.05 829.919 C 1650.86 829.81 1628.14 829.011 1624 830.751 L 1623.35 832.912 L 1623.36 857.483 L 1659.31 857.42 L 1659.33 870.144 L 1608.88 870.174 L 1608.89 780.861 z"/>
<path transform="translate(0,0)" fill="rgb(22,27,46)" d="M 1949.68 802.853 L 1965.24 802.8 C 1971.2 817.804 1979.47 840.256 1983.46 855.569 C 1986.91 841.341 1995.83 817.67 2000.82 802.819 L 2016.8 802.851 C 2010.4 817.75 2003.98 836.506 1997.95 852.078 C 1993.51 864.232 1987.99 883.387 1979.49 893.02 C 1974.66 898.486 1958.72 903.504 1952.34 896.748 C 1951.34 893.421 1951.78 892.479 1952.67 889.237 C 1962.21 882.733 1966.28 897.564 1976.52 869.978 C 1968.33 848.146 1958.41 824.63 1949.68 802.853 z"/>
<path transform="translate(0,0)" fill="rgb(22,27,46)" d="M 443.588 780.217 C 459.565 779.031 464.101 779.83 478.864 785.184 L 473.285 797.444 C 443.415 785.279 423.486 798.197 426.412 832.438 C 428.235 853.771 442.455 860.204 462.497 857.822 L 475.314 855.037 L 475.283 867.482 C 460.999 871.683 444.921 873.818 431.335 866.885 C 402.678 852.261 403.869 798.386 432.571 784.227 C 435.937 782.567 440.032 781.31 443.588 780.217 z"/>
<path transform="translate(0,0)" fill="rgb(22,27,46)" d="M 981.784 801.206 C 1010.87 800.726 1009.55 821.755 1009.1 844.292 C 1008.94 852.736 1009 861.638 1008.95 870.126 L 994.207 870.148 C 994.627 856.963 995.807 835.698 993.416 822.878 C 991.324 811.66 980.487 812.365 971.298 815.323 C 960.302 824.853 963.832 855.552 964.003 869.969 L 949.175 870.038 C 949.155 863.127 948.503 805.533 949.914 803.161 C 953.245 802.13 954.194 801.641 957.675 802.572 C 960.892 804.379 961.652 807.036 963.192 810.432 C 972.877 804.308 967.834 804.205 981.784 801.206 z"/>
<path transform="translate(0,0)" fill="rgb(22,27,46)" d="M 601.946 801.211 C 638.117 800.603 628.741 843.83 628.729 870.115 L 613.923 870.164 C 613.845 861.67 614.173 852.834 614.249 844.34 C 614.41 826.369 616.282 807.854 591.427 815.089 C 579.894 824.695 583.476 855.08 583.601 870.013 L 569.087 869.965 C 569.233 847.949 568.858 825.924 569.236 803.892 L 570.45 802.808 C 577.099 801.455 579.558 802.611 582.507 808.649 L 582.914 809.493 C 587.179 809.027 588.936 803.504 601.946 801.211 z"/>
<path transform="translate(0,0)" fill="rgb(22,27,46)" d="M 1709.6 801.276 C 1746.78 799.996 1737.15 843.288 1737.08 870.13 L 1722.28 870.165 C 1722.22 861.609 1722.57 852.826 1722.61 844.267 C 1722.71 826.68 1725 808.409 1700.52 814.778 C 1688.13 823.61 1691.88 855.315 1692.04 870.016 L 1677.63 870.005 C 1677.67 862.994 1677.05 805.534 1678.49 803.08 C 1681.85 801.923 1682.69 801.452 1686.23 802.455 C 1689.23 804.127 1689.98 806.749 1691.35 809.883 C 1698.79 805.081 1700.84 803.016 1709.6 801.276 z"/>
<path transform="translate(0,0)" fill="rgb(22,27,46)" d="M 680.501 801.304 C 718.151 799.422 708.32 843.172 708.316 870.097 L 693.982 870.132 C 693.839 856.143 695.528 838.013 693.46 824.245 C 691.705 812.561 681.794 812.218 672.051 814.794 C 659.413 824.186 663.446 854.686 663.602 869.999 L 649.03 869.96 C 648.995 850.553 648.104 822.623 649.398 803.885 C 655.357 797.466 660.387 804.977 662.831 809.671 C 670.099 805.057 672.21 803.119 680.501 801.304 z"/>
<path transform="translate(0,0)" fill="rgb(22,27,46)" d="M 1278.99 801.314 C 1290.24 801.196 1294.48 802.597 1304.9 805.888 L 1300.22 816.93 C 1288.41 812.991 1281.64 810.721 1269.95 815.574 L 1268.99 818.872 C 1275.44 827.129 1286.85 828.912 1294.93 834.497 C 1316.3 849.265 1305.66 866.882 1283.86 871.153 C 1271.39 871.345 1268.01 871.272 1256.1 867.401 L 1256.08 854.894 C 1265.08 858.029 1283.06 864.722 1290.66 855.719 C 1295.39 849.484 1283.09 843.565 1278.61 841.786 C 1265.4 836.548 1248.47 826.112 1258.74 809.856 C 1262.34 804.163 1272.47 802.194 1278.99 801.314 z"/>
<path transform="translate(0,0)" fill="rgb(22,27,46)" d="M 1487.26 801.292 C 1495.72 800.832 1501.93 802.683 1509.84 805.018 L 1505.38 816.752 C 1498.38 814.524 1491.29 812.265 1484.1 815.022 C 1468.18 821.122 1468.29 851.542 1484.08 857.743 C 1492.33 860.985 1500.45 857.727 1508.15 854.634 L 1508.09 867.424 C 1497.19 871.589 1479.11 874.26 1470.37 865.902 C 1448.06 844.559 1454.09 805.965 1487.26 801.292 z"/>
<path transform="translate(0,0)" fill="rgb(22,27,46)" d="M 826.767 801.334 C 835.303 800.898 841.022 802.692 849.024 805.021 C 847.485 808.793 846.097 813.023 844.74 816.901 C 835.528 813.938 824.21 810.714 816.796 819.472 C 808.896 829.095 809.703 848.206 819.643 856.188 C 828.706 863.465 837.968 856.216 847.095 855.447 L 847.042 867.598 C 816.873 879.696 793.396 862.916 797.256 830.406 C 799.41 812.271 809.125 803.534 826.767 801.334 z"/>
<path transform="translate(0,0)" fill="rgb(22,27,46)" d="M 1530.96 787.813 C 1534.09 787.681 1535.87 787.32 1538.74 788.571 C 1541.47 792.691 1540.43 797.434 1540.23 802.824 C 1548.87 802.704 1554.68 801.337 1561.21 806.933 C 1561.19 815.503 1546.26 813.664 1540.24 813.491 C 1540.12 824.804 1539.33 836.901 1540.66 848.103 C 1543.35 870.606 1555.13 852.065 1560.82 860.888 C 1560 873.338 1552.96 871.653 1542.02 870.968 C 1514.84 869.265 1530.9 822.057 1524.51 813.6 C 1522.14 813.595 1520.26 813.499 1517.9 813.316 C 1515.99 810.948 1516.57 811.833 1516.66 807.976 C 1518.25 805.73 1523.66 803.347 1526.41 801.925 C 1528.17 797.732 1529.63 792.251 1530.96 787.813 z"/>
<path transform="translate(0,0)" fill="rgb(22,27,46)" d="M 1328.98 787.797 C 1332.15 787.676 1333.28 787.452 1336.37 788.401 C 1339.39 792.658 1338.26 797.028 1338.05 802.8 C 1346.94 802.792 1351.56 801.397 1358.73 806.507 L 1358.71 810.072 C 1352.83 814.864 1345.42 813.709 1338.06 813.532 C 1338.12 825.055 1336.65 843.586 1339.19 854.613 C 1340.95 862.297 1352.73 857.029 1357.93 859.478 L 1359.23 863.224 C 1358.68 865.444 1358.35 866.138 1357.41 868.239 C 1356.43 869.083 1355.05 870.179 1353.76 870.418 C 1309.45 878.61 1328.5 834.339 1322.98 814.037 C 1320.15 813.322 1319.23 813.409 1316.27 813.378 C 1314.04 811.013 1314.71 812.019 1314.52 807.963 C 1316.12 805.626 1321.45 803.375 1324.26 801.948 L 1328.98 787.797 z"/>
<path transform="translate(0,0)" fill="rgb(22,27,46)" d="M 871.293 787.797 C 874.418 787.677 875.83 787.381 878.758 788.537 C 881.533 792.708 880.464 797.36 880.244 802.83 C 888.683 802.716 894.385 801.342 900.668 807.014 C 900.477 815.386 886.164 813.673 880.249 813.505 C 880.323 824.977 878.829 843.937 881.497 854.736 C 883.398 862.434 894.534 857.416 898.981 859.019 C 900.321 859.501 900.447 861.205 901.108 863.109 C 900.713 864.703 900.144 866.359 899.644 867.932 C 894.376 873.193 877.068 872.208 872.094 866.942 C 861.454 855.68 866.932 830.114 865.651 814.969 C 863.788 812.898 862.027 813.588 858.332 813.353 C 856.222 810.988 856.877 811.822 856.571 807.956 C 858.147 805.646 863.626 803.289 866.422 801.859 L 871.293 787.797 z"/>
<path transform="translate(0,0)" fill="rgb(22,27,46)" d="M 1862.31 801.188 C 1865.43 801.098 1867.02 800.868 1870.01 801.982 C 1872.51 805.687 1871.13 809.973 1870.57 815.033 C 1868.7 814.929 1866.83 814.875 1864.97 814.871 C 1837.79 814.86 1844.83 850.931 1845 870.022 L 1830.19 869.954 C 1830.25 860.911 1828.77 807.123 1831.66 803.712 C 1835.95 802.883 1836.65 802.742 1841 803.281 C 1842.54 805.143 1843.12 811.706 1843.54 814.498 C 1849.83 806.465 1852.66 803.82 1862.31 801.188 z"/>
<path transform="translate(0,0)" fill="rgb(22,27,46)" d="M 1403.19 801.247 C 1407.52 801.334 1414.97 800.99 1414.17 808.608 C 1412.94 820.403 1400.03 810.337 1392.53 819.652 C 1383.23 831.193 1386.35 855.878 1386.52 870.015 L 1372.2 869.995 C 1372.09 849.647 1371.78 828.372 1372.21 807.991 C 1372.28 804.826 1372.38 804.872 1374.15 803.439 C 1377.39 803.025 1379.68 802.383 1382.65 803.589 C 1384.88 806.146 1384.92 811.044 1385.33 814.65 C 1391.11 806.565 1393.93 804.325 1403.19 801.247 z"/>
<path transform="translate(0,0)" fill="rgb(22,27,46)" d="M 913.999 802.837 L 928.722 802.819 L 928.723 869.938 L 914.014 869.959 L 913.999 802.837 z"/>
<path transform="translate(0,0)" fill="rgb(22,27,46)" d="M 1224.42 802.82 L 1239.12 802.827 L 1239.11 870 L 1224.41 869.975 L 1224.42 802.82 z"/>
<path transform="translate(0,0)" fill="rgb(22,27,46)" d="M 1426.49 802.783 L 1440.99 802.828 L 1440.98 869.996 L 1426.44 869.989 L 1426.49 802.783 z"/>
<path transform="translate(0,0)" fill="rgb(22,27,46)" d="M 1430.07 777.471 C 1434.12 775.415 1439.07 777.032 1441.13 781.083 C 1443.19 785.134 1441.58 790.088 1437.54 792.153 C 1433.48 794.222 1428.52 792.608 1426.45 788.551 C 1424.39 784.493 1426.01 779.531 1430.07 777.471 z"/>
<path transform="translate(0,0)" fill="rgb(22,27,46)" d="M 917.615 777.475 C 920.334 776.096 923.592 776.334 926.082 778.093 C 928.572 779.851 929.885 782.842 929.494 785.866 C 929.104 788.889 927.074 791.448 924.22 792.517 C 920.131 794.047 915.558 792.117 913.803 788.119 C 912.048 784.122 913.721 779.449 917.615 777.475 z"/>
<path transform="translate(0,0)" fill="rgb(22,27,46)" d="M 1228.21 777.458 C 1232.27 775.423 1237.22 777.076 1239.25 781.146 C 1241.28 785.217 1239.62 790.161 1235.54 792.183 C 1231.48 794.202 1226.55 792.546 1224.52 788.484 C 1222.5 784.422 1224.15 779.488 1228.21 777.458 z"/>
</svg>