<svg version="1.1" xmlns="http://www.w3.org/2000/svg" style="display: block;" viewBox="0 0 2048 1152" width="1600" height="900" preserveAspectRatio="none">
<path transform="translate(0,0)" fill="rgb(255,255,255)" d="M 0 0 L 2048 0 L 2048 652.776 L 2048 709.936 L 2048 1152 L 0 1152 L 0 735.124 L 0 727.764 L 0 427.953 L 0 420.12 L 0 0 z"/>
<path transform="translate(0,0)" fill="rgb(40,36,42)" d="M 2048 709.936 L 785.822 709.936 L 373.974 709.93 L 246.307 709.924 C 222.749 710.006 198.789 710.222 175.227 709.993 C 168.244 709.714 157.26 707.214 152.343 701.843 C 135.662 683.619 145.891 653.463 171.782 653.01 C 195.143 652.601 217.857 652.737 240.922 652.74 L 374.851 652.759 L 785.931 652.786 L 2048 652.776 L 2048 709.936 z"/>
<path transform="translate(0,0)" fill="rgb(255,255,255)" d="M 167.082 659.438 C 174.998 657.439 183.376 659.852 189.016 665.755 C 194.655 671.657 196.684 680.137 194.328 687.953 C 191.971 695.769 185.593 701.713 177.631 703.515 C 165.53 706.252 153.477 698.751 150.59 686.685 C 147.702 674.619 155.053 662.475 167.082 659.438 z"/>
<path transform="translate(0,0)" fill="rgb(0,121,184)" d="M 0 420.12 L 135.897 420.111 C 169.996 420.112 205.997 418.442 238.892 424.104 C 285.471 432.121 324.121 461.258 323.429 511.835 C 323.111 534.987 315.925 557.257 298.838 573.988 C 260.926 610.38 209.161 606.654 161.233 606.607 L 83.9433 606.471 L 83.9968 686.04 C 83.9868 694.922 83.5356 703.747 83.6217 712.565 C 83.7073 721.324 96.5609 726.743 99.2036 732.021 L 98.6701 734.119 C 87.6362 737.119 16.0937 735.147 0 735.124 L 0 727.764 L 0 427.953 L 0 420.12 z"/>
<path transform="translate(0,0)" fill="rgb(255,255,255)" d="M 0 427.953 C 4.44545 429.431 10.9994 430.994 13.2827 435.61 C 15.1177 439.319 14.7478 445.533 14.8652 449.665 C 15.6438 477.055 16.402 712.512 13.563 719.539 C 12.3469 722.55 9.573 724.445 6.63958 725.554 C 4.45929 726.378 2.22647 727.076 0 727.764 L 0 427.953 z"/>
<path transform="translate(0,0)" fill="rgb(255,255,255)" d="M 84.0227 473.117 C 116.136 473.082 148.524 472.798 180.517 473.127 C 205.409 473.383 253.895 475.022 256.549 508.107 C 257.709 522.568 253.477 531.081 242.546 540.007 C 216.668 554.916 182.512 553.01 153.457 552.997 L 83.9415 552.89 L 84.0227 473.117 z"/>
<path transform="translate(0,0)" fill="rgb(0,121,184)" d="M 444.183 422.48 C 474.962 422.213 502.602 427.182 526.969 447.691 C 546.043 463.43 557.882 486.26 559.756 510.918 C 564.864 574.494 515.106 611.311 456.247 615.639 C 425.286 615.999 396.391 609.663 372.579 588.605 C 354.03 572.321 342.764 549.294 341.293 524.655 C 339.734 500.028 348.031 475.793 364.356 457.288 C 385.236 433.895 413.581 424.136 444.183 422.48 z"/>
<path transform="translate(0,0)" fill="rgb(255,255,255)" d="M 448.583 459.417 C 534.958 460.59 534.692 572.288 455.21 578.088 C 437.753 578.469 419.948 575.431 406.392 563.345 C 372.027 532.707 385.414 471.862 431.535 461.588 C 437.827 460.186 442.164 459.802 448.583 459.417 z"/>
<path transform="translate(0,0)" fill="rgb(0,121,184)" d="M 546.927 426.894 C 550.723 426.593 562.269 426.446 565.578 426.695 C 573.897 427.322 617.553 424.89 620.54 428.482 C 619.193 432.979 607.542 437.943 610.836 446.889 C 614.177 455.96 617.882 464.931 621.325 473.989 L 649.416 548.063 C 659.625 522.669 677.133 471.96 686.479 443.676 C 688.097 438.78 675.95 433.442 675.348 428.206 L 676.415 427.188 C 685.791 426.142 747.33 425.541 756.149 427.317 C 758.124 437.797 742.119 431.462 746.631 447.699 C 749.729 458.851 753.955 469.817 757.807 480.725 C 765.932 503.296 773.856 525.939 781.578 548.65 C 793.268 513.935 807.186 479.593 818.764 444.913 C 820.942 438.388 807.401 433.393 807.642 427.789 C 809.93 426.149 872.521 426.175 877.369 427.346 C 879.474 434.358 867.987 434.627 864.325 440.673 C 857.53 451.89 852.621 466.989 847.991 479.281 C 841.486 496.233 803.642 587.77 805.153 596.253 C 806.05 601.293 810.991 603.802 814.867 606.484 C 815.971 609.469 815.983 608.267 815.223 611.162 C 804.709 613.336 763.121 610.977 750.269 611.991 C 747.215 612.231 746.137 611.386 744.532 609.492 C 746.523 602.077 759.479 603.161 754.788 589.759 C 741.297 551.211 726.029 513.137 712.7 474.526 C 706.65 490.431 670.091 588.068 671.32 597.102 C 672.115 602.946 677.431 603.006 681.252 606.159 C 682.018 608.673 681.916 608.78 680.988 611.354 C 671.789 612.65 623.22 612.014 612.265 611.525 L 611.354 610.266 C 612.271 604.624 625.33 599.145 621.28 588.566 C 619.036 582.707 616.415 576.593 614.094 570.747 L 597.762 529.224 L 575.113 471.323 C 571.859 463.038 568.181 453.321 564.727 445.324 C 562.525 440.228 552.576 433.921 548.142 430.948 C 547.66 429.34 547.255 427.989 546.927 426.894 z"/>
<path transform="translate(0,0)" fill="rgb(0,121,184)" d="M 1098.24 426.87 C 1123.32 425.797 1151.71 427.077 1177.16 426.669 C 1199.77 427.046 1220.92 425.589 1243.53 427.934 C 1285.86 432.326 1314.16 463.313 1294.69 505.72 C 1287.07 522.328 1265.66 529.889 1249.4 534.713 C 1263.48 553.877 1281.59 585.735 1300.26 598.687 C 1304.69 601.756 1310.77 604.872 1311.78 610.449 C 1308.58 612.798 1264.76 611.895 1257.5 611.871 C 1252.39 611.954 1237.16 613.28 1233.93 609.963 C 1235.17 605.338 1241.69 604.431 1242.6 599.25 C 1243.84 592.157 1207.7 544.677 1201.64 536.032 L 1155.01 536.062 C 1155.21 554.334 1154.7 573.133 1154.8 591.439 C 1154.91 609.976 1166.39 600.978 1165.18 610.507 L 1163.23 611.759 C 1146.96 611.871 1118.66 612.675 1101.57 611.32 C 1100.53 611.237 1100.3 609.993 1099.77 608.796 C 1101.49 604.763 1106.98 604.436 1108.74 600.803 C 1111.19 595.744 1110.93 448.597 1109.39 440.78 C 1107.73 432.33 1101.48 435.515 1098.24 426.87 z"/>
<path transform="translate(0,0)" fill="rgb(255,255,255)" d="M 1155.07 460.168 C 1172.87 460.102 1190.89 459.95 1208.7 460.143 C 1221.98 460.718 1242.02 460.181 1251.85 470.573 C 1259.65 478.818 1255.73 488.133 1248.38 494.738 C 1227.88 505.524 1179.41 502.295 1155.02 502.221 L 1155.07 460.168 z"/>
<path transform="translate(0,0)" fill="rgb(0,121,184)" d="M 1640.82 426.991 C 1642.79 426.817 1644.76 426.721 1646.73 426.704 L 1724.41 426.634 C 1749.64 426.633 1771.56 425.175 1797.16 430.553 C 1838.88 439.317 1855.73 485.698 1825.6 517.073 C 1805.25 538.269 1772.12 536.2 1744.5 536.077 L 1697.19 536.127 C 1697.1 553.351 1695.49 584 1699.12 600.506 C 1700.02 604.568 1705.91 604.687 1707.97 609.425 L 1706.85 610.986 C 1700.47 612.818 1654.87 611.826 1645.59 611.665 C 1643.23 611.624 1643.15 610.873 1642.05 609.32 C 1643.46 604.851 1648.21 605.128 1651.6 599.85 C 1653.4 592.865 1652.98 442.123 1651.18 437.722 C 1650.04 434.91 1648.04 434.49 1645.58 433.203 C 1642.07 431.361 1641.94 430.519 1640.82 426.991 z"/>
<path transform="translate(0,0)" fill="rgb(255,255,255)" d="M 1697.18 460.179 C 1717.01 460.106 1737.38 459.786 1756.87 460.396 C 1771.16 460.843 1797.29 463.391 1795.19 482.655 C 1794.52 488.773 1791.55 491.252 1787.36 495.022 C 1765.79 505.371 1722.24 502.279 1697.17 502.18 L 1697.18 460.179 z"/>
<path transform="translate(0,0)" fill="rgb(0,121,184)" d="M 1328.85 426.952 C 1329.93 426.861 1331.01 426.792 1332.1 426.745 C 1335.78 426.621 1339.86 426.583 1343.68 426.697 C 1388.47 428.041 1435.02 423.614 1479.38 429.307 C 1491.39 430.848 1505.91 437.723 1514.4 445.736 C 1534.06 464.282 1533.05 498.458 1513.83 516.973 C 1491.74 538.597 1460.01 536.203 1431.5 536.077 L 1385.35 536.057 C 1385.55 553.574 1383.42 583.554 1387.33 600.458 C 1388.42 605.177 1393.01 603.755 1396.03 609.018 C 1395.78 609.551 1395.34 610.978 1394.78 611.007 C 1385.93 611.461 1332.84 614.799 1330.06 608.882 C 1331.68 604.759 1335.69 605.346 1339.43 600.915 C 1341.36 595.089 1341.51 454.684 1339.19 437.7 C 1338.89 435.486 1336.01 434.518 1334.2 433.549 C 1329.52 431.052 1330.33 431.442 1328.85 426.952 z"/>
<path transform="translate(0,0)" fill="rgb(255,255,255)" d="M 1385.38 460.172 C 1404.15 460.1 1423.12 459.87 1441.85 460.268 C 1455.99 460.568 1484.7 462.284 1483.56 482.101 C 1483.22 487.965 1480.1 490.827 1476.12 494.505 C 1458.11 505.44 1407.87 502.28 1385.42 502.197 L 1385.38 460.172 z"/>
<path transform="translate(0,0)" fill="rgb(0,121,184)" d="M 1065.98 416.633 L 1069.62 417.047 C 1073.28 419.92 1072.37 424.599 1071.9 428.863 C 1071.23 435.052 1073.32 470.428 1070.74 473.753 C 1066.9 472.862 1058.76 463.652 1054.13 463.721 C 1045.6 463.849 1035.91 464.139 1027.35 464.152 L 940.342 464.149 L 940.296 500.777 C 961.239 500.747 989.848 500.814 1011.46 501.026 C 1014.37 501.054 1022.18 493.569 1025.92 491.048 L 1027.37 491.463 C 1028.09 496.904 1028.63 540.269 1026.78 542.901 C 1023.15 542.288 1015.98 533.176 1011.1 532.819 C 1006.34 532.47 999.76 533.046 994.815 533.069 L 940.538 533.113 C 940.072 546.264 940.405 561.491 940.387 574.798 L 1020.46 574.93 C 1033.46 574.945 1051.18 575.628 1064.07 573.824 C 1067.04 573.409 1067.55 571.792 1068.8 569.612 C 1069.95 566.187 1070.31 565.214 1073.01 563.818 L 1074.54 564.567 C 1077.53 570.275 1077.07 615.516 1075.38 621.278 C 1070.48 622.998 1067.73 611.012 1054.62 611.373 C 1016.34 612.426 977.444 611.68 939.12 611.868 C 930.941 611.909 891.862 612.525 885.665 611.504 L 884.716 608.962 C 886.328 605.439 889.802 604.526 893.81 601.405 C 897.08 595.862 895.519 573.203 895.514 565.538 L 895.607 497.959 C 895.634 479.844 895.835 460.161 895.536 441.982 C 895.448 436.633 890.055 434.797 886.73 432.215 C 884.903 430.796 885.371 430.55 885.253 428.001 C 885.576 427.604 885.898 427.207 886.221 426.809 C 930.199 426.365 975.779 426.842 1019.61 426.794 C 1030.61 426.782 1055.56 427.598 1061.49 425.328 C 1064.36 423.287 1064.93 420.021 1065.98 416.633 z"/>
<path transform="translate(0,0)" fill="rgb(0,121,184)" d="M 2035.03 416.512 L 2038.98 417.297 C 2041.32 419.554 2043.24 472.711 2037.72 474.796 C 2034.01 472.968 2031.51 466.027 2030.41 465.629 C 2022.88 462.905 1997.24 464.227 1989.87 464.224 L 1909.24 464.156 L 1909.28 500.796 C 1933.01 500.753 1956.79 500.798 1980.46 501.03 C 1985.12 501.076 1991.57 490.868 1996.28 491.353 C 1997.07 496.488 1997.58 540.294 1995.8 542.936 C 1992.11 542.415 1984.51 533.133 1980.01 532.848 C 1975.14 532.539 1968.11 533.051 1963.03 533.071 L 1909.29 533.114 L 1909.27 574.857 L 1987.85 574.919 C 1997.93 574.926 2032.45 577.116 2037.59 570.715 C 2039.19 566.372 2038.35 566.739 2041.54 564.111 L 2043.34 564.684 C 2046.33 570.398 2045.78 615.505 2044.26 621.869 C 2040.3 621.373 2032.31 611.229 2027.85 611.402 C 2016.9 611.827 2005.55 611.855 1994.64 611.863 L 1900.25 611.869 C 1888.97 611.871 1864.33 612.651 1854.57 611.582 L 1853.43 608.967 C 1855.75 602.333 1864.43 606.925 1864.6 593.17 C 1864.73 583.057 1864.48 572.213 1864.47 562.083 L 1864.49 494.66 C 1864.5 476.995 1864.82 459.228 1864.52 441.6 C 1864.43 435.961 1855.24 436.25 1854.3 428.276 C 1856.15 425.279 1892.92 426.621 1899.52 426.629 L 1987.3 426.792 C 1997.13 426.819 2007.07 427.02 2016.89 426.823 C 2026.93 426.621 2031.5 428.048 2034.7 417.609 L 2035.03 416.512 z"/>
<path transform="translate(0,0)" fill="rgb(0,121,184)" d="M 1540.56 426.885 C 1552.64 426.095 1592.63 426.271 1606.79 427.507 C 1607.62 427.58 1607.57 428.885 1607.8 430.104 C 1605.75 433.742 1601.81 432.975 1598.13 437.476 C 1597.5 439.241 1596.86 441.445 1596.91 443.437 C 1597.98 494.905 1595.79 546.655 1597.56 598.048 C 1597.82 605.439 1605.79 602.405 1608.82 610.849 C 1604.56 612.56 1549.12 612.398 1542.62 611.259 C 1542.5 607.731 1548.91 603.192 1551.28 597.145 L 1551.48 596.603 C 1552.09 595.05 1552.66 593.38 1552.62 591.656 C 1551.35 544.21 1552.67 496.608 1552.19 449.142 C 1552.13 442.721 1552.12 435.907 1545.64 433.48 C 1541.73 432.012 1541.69 430.414 1540.56 426.885 z"/>
</svg>